<svg width="18" height="12" viewBox="0 0 18 12" xmlns="http://www.w3.org/2000/svg">
    <path
        d="M3.49939 1.91699L6.10806 5.26066C6.15519 5.32109 6.18996 5.39022 6.21037 5.46409C6.23079 5.53796 6.23644 5.61513 6.22702 5.69119C6.21759 5.76725 6.19327 5.84071 6.15544 5.90736C6.11761 5.97402 6.06702 6.03256 6.00656 6.07966L5.54689 6.43783C5.48653 6.48503 5.41746 6.51988 5.34363 6.54038C5.2698 6.56089 5.19266 6.56665 5.1166 6.55733C5.04055 6.54801 4.96707 6.5238 4.90038 6.48608C4.83368 6.44836 4.77507 6.39787 4.72789 6.33749L1.01789 1.57866C0.917481 1.44936 0.855361 1.29448 0.838589 1.13164C0.821817 0.968788 0.851067 0.804502 0.923013 0.657451C0.994958 0.510399 1.10672 0.38648 1.24558 0.299779C1.38444 0.213078 1.54485 0.167073 1.70856 0.166992H12.3602C15.3236 0.166992 17.1669 2.78033 17.1669 5.99916C17.1669 9.16199 15.3889 11.7392 12.5154 11.829L12.3346 11.8325L3.75022 11.8313C3.59551 11.8313 3.44714 11.7699 3.33774 11.6605C3.22835 11.5511 3.16689 11.4027 3.16689 11.248V10.6647C3.16689 10.5881 3.18198 10.5122 3.21129 10.4414C3.24061 10.3707 3.28358 10.3063 3.33774 10.2522C3.39191 10.198 3.45622 10.155 3.52699 10.1257C3.59776 10.0964 3.67362 10.0813 3.75022 10.0813L12.3136 10.0825H12.3602C14.1604 10.0825 15.3621 8.43283 15.4146 6.15549L15.4169 5.99916C15.4169 3.64249 14.2012 1.91699 12.3602 1.91699H3.49939Z"
        fill="currentColor" />
</svg>