<svg width="54" height="40" viewBox="0 0 54 40" fill="none" xmlns="http://www.w3.org/2000/svg">
<g clip-path="url(#clip0_1819_11508)">
<path fill-rule="evenodd" clip-rule="evenodd" d="M30.1482 3.6266C29.8767 3.75753 29.5543 3.56365 29.5543 3.26177V0.8C29.5543 0.358172 29.1967 0 28.7555 0H13.6589C13.5193 0 13.3822 0.0366342 13.2611 0.106252L0.400989 7.50271C0.152945 7.64537 0 7.90998 0 8.19645V39.2C0 39.6418 0.357619 40 0.798764 40H15.8954C16.035 40 16.1721 39.9634 16.2932 39.8937L27.4848 33.4569C27.6758 33.3471 27.9195 33.4128 28.0296 33.6038L31.2849 39.2509C31.5055 39.6336 31.994 39.7647 32.3761 39.5438L45.1734 32.1438C52.8778 27.6886 55.5176 17.8216 51.0694 10.1052C46.8272 2.74606 37.6702 0.000626882 30.1482 3.6266ZM14.644 9.86667C14.644 9.42484 14.2864 9.06667 13.8453 9.06667H2.13004C1.68889 9.06667 1.33127 9.42484 1.33127 9.86667V37.8667C1.33127 38.3085 1.68889 38.6667 2.13004 38.6667H13.8453C14.2864 38.6667 14.644 38.3085 14.644 37.8667V9.86667ZM17.8607 13.2968C17.6261 12.8898 17.7906 12.3668 18.2271 12.1945C24.9227 9.55091 32.7205 12.1412 36.4275 18.5719C40.1345 25.0025 38.4754 33.0612 32.8417 37.547C32.4745 37.8394 31.94 37.7206 31.7054 37.3136L17.8607 13.2968Z" fill="#F5F6FC"/>
</g>
<defs>
<clipPath id="clip0_1819_11508">
<rect width="53.251" height="40" fill="white"/>
</clipPath>
</defs>
</svg>
